<?xml version="1.0" encoding="UTF-8"?>
<svg xmlns="http://www.w3.org/2000/svg" width="280.0" height="280.0" viewBox="0 0 280.0 280.0">
  <style>
    .vertex-label { font-family: sans-serif; font-size: 14px; font-weight: 600; }
  </style>
  <rect width="280.0" height="280.0" fill="#FFFFFF"/>
  <line x1="66.17" y1="148.91" x2="150.59" y2="126.35" stroke="#000000" stroke-width="1.5" stroke-linecap="round" stroke-dasharray="5,4" stroke-opacity="0.5"/>
  <line x1="150.59" y1="126.35" x2="221.88" y2="162.09" stroke="#000000" stroke-width="1.5" stroke-linecap="round" stroke-dasharray="5,4" stroke-opacity="0.5"/>
  <line x1="150.59" y1="126.35" x2="140.00" y2="68.90" stroke="#000000" stroke-width="1.5" stroke-linecap="round" stroke-dasharray="5,4" stroke-opacity="0.5"/>
  <line x1="221.88" y1="162.09" x2="120.63" y2="207.87" stroke="#000000" stroke-width="2" stroke-linecap="round"/>
  <line x1="66.17" y1="148.91" x2="120.63" y2="207.87" stroke="#000000" stroke-width="2" stroke-linecap="round"/>
  <line x1="66.17" y1="148.91" x2="140.00" y2="68.90" stroke="#000000" stroke-width="2" stroke-linecap="round"/>
  <line x1="221.88" y1="162.09" x2="140.00" y2="68.90" stroke="#000000" stroke-width="2" stroke-linecap="round"/>
  <line x1="120.63" y1="207.87" x2="140.00" y2="68.90" stroke="#000000" stroke-width="2" stroke-linecap="round"/>
  <circle cx="66.17" cy="148.91" r="4" fill="#000000"/>
  <text x="54.17" y="164.91" class="vertex-label" fill="#000000" text-anchor="end">A</text>
  <circle cx="150.59" cy="126.35" r="4" fill="#000000"/>
  <text x="158.59" y="118.35" class="vertex-label" fill="#000000" text-anchor="start">B</text>
  <circle cx="221.88" cy="162.09" r="4" fill="#000000"/>
  <text x="229.88" y="178.09" class="vertex-label" fill="#000000" text-anchor="start">C</text>
  <circle cx="120.63" cy="207.87" r="4" fill="#000000"/>
  <text x="108.63" y="223.87" class="vertex-label" fill="#000000" text-anchor="end">D</text>
  <circle cx="140.00" cy="68.90" r="4" fill="#000000"/>
  <text x="140.00" y="60.90" class="vertex-label" fill="#000000" text-anchor="middle">E</text>
</svg>
