<?xml version="1.0" encoding="UTF-8"?>
<svg xmlns="http://www.w3.org/2000/svg" width="280.0" height="280.0" viewBox="0 0 280.0 280.0">
  <style>
    .vertex-label { font-family: sans-serif; font-size: 14px; font-weight: 600; }
  </style>
  <rect width="280.0" height="280.0" fill="#FFFFFF"/>
  <line x1="79.50" y1="177.17" x2="148.93" y2="156.84" stroke="#000000" stroke-width="1.5" stroke-linecap="round" stroke-dasharray="5,4" stroke-opacity="0.5"/>
  <line x1="148.93" y1="156.84" x2="149.96" y2="82.58" stroke="#000000" stroke-width="1.5" stroke-linecap="round" stroke-dasharray="5,4" stroke-opacity="0.5"/>
  <line x1="148.93" y1="156.84" x2="206.01" y2="188.52" stroke="#000000" stroke-width="1.5" stroke-linecap="round" stroke-dasharray="5,4" stroke-opacity="0.5"/>
  <line x1="149.96" y1="82.58" x2="70.95" y2="89.25" stroke="#000000" stroke-width="2" stroke-linecap="round"/>
  <line x1="79.50" y1="177.17" x2="70.95" y2="89.25" stroke="#000000" stroke-width="2" stroke-linecap="round"/>
  <line x1="206.01" y1="188.52" x2="216.32" y2="93.11" stroke="#000000" stroke-width="2" stroke-linecap="round"/>
  <line x1="125.21" y1="225.27" x2="206.01" y2="188.52" stroke="#000000" stroke-width="2" stroke-linecap="round"/>
  <line x1="125.21" y1="225.27" x2="122.15" y2="106.32" stroke="#000000" stroke-width="2" stroke-linecap="round"/>
  <line x1="216.32" y1="93.11" x2="122.15" y2="106.32" stroke="#000000" stroke-width="2" stroke-linecap="round"/>
  <line x1="79.50" y1="177.17" x2="125.21" y2="225.27" stroke="#000000" stroke-width="2" stroke-linecap="round"/>
  <line x1="149.96" y1="82.58" x2="216.32" y2="93.11" stroke="#000000" stroke-width="2" stroke-linecap="round"/>
  <line x1="70.95" y1="89.25" x2="122.15" y2="106.32" stroke="#000000" stroke-width="2" stroke-linecap="round"/>
  <circle cx="79.50" cy="177.17" r="4" fill="#000000"/>
  <text x="67.50" y="193.17" class="vertex-label" fill="#000000" text-anchor="end">A</text>
  <circle cx="148.93" cy="156.84" r="4" fill="#000000"/>
  <text x="156.93" y="172.84" class="vertex-label" fill="#000000" text-anchor="start">B</text>
  <circle cx="149.96" cy="82.58" r="4" fill="#000000"/>
  <text x="157.96" y="74.58" class="vertex-label" fill="#000000" text-anchor="start">C</text>
  <circle cx="70.95" cy="89.25" r="4" fill="#000000"/>
  <text x="58.95" y="81.25" class="vertex-label" fill="#000000" text-anchor="end">D</text>
  <circle cx="125.21" cy="225.27" r="4" fill="#000000"/>
  <text x="113.21" y="241.27" class="vertex-label" fill="#000000" text-anchor="end">E</text>
  <circle cx="206.01" cy="188.52" r="4" fill="#000000"/>
  <text x="214.01" y="204.52" class="vertex-label" fill="#000000" text-anchor="start">F</text>
  <circle cx="216.32" cy="93.11" r="4" fill="#000000"/>
  <text x="224.32" y="85.11" class="vertex-label" fill="#000000" text-anchor="start">G</text>
  <circle cx="122.15" cy="106.32" r="4" fill="#000000"/>
  <text x="110.15" y="98.32" class="vertex-label" fill="#000000" text-anchor="end">H</text>
</svg>
