<?xml version="1.0" encoding="UTF-8"?>
<svg xmlns="http://www.w3.org/2000/svg" width="400.0" height="350.0" viewBox="0 0 400.0 350.0">
  <style>
    .axis-label { font-family: sans-serif; font-size: 12px; font-style: italic; fill: #000000; }
    .tick-value { font-family: sans-serif; font-size: 10px; fill: #000000B3; }
    .legend-text { font-family: sans-serif; font-size: 12px; fill: #000000; }
  </style>
  <rect width="400.0" height="350.0" fill="white"/>
  <defs>
    <clipPath id="chartClip">
      <rect x="45.0" y="25.0" width="330.0" height="295.0"/>
    </clipPath>
  </defs>
  <line x1="52.36" y1="25.0" x2="52.36" y2="320.0" stroke="#808080" stroke-opacity="0.2"/>
  <line x1="104.90" y1="25.0" x2="104.90" y2="320.0" stroke="#808080" stroke-opacity="0.2"/>
  <line x1="157.45" y1="25.0" x2="157.45" y2="320.0" stroke="#808080" stroke-opacity="0.2"/>
  <line x1="210.00" y1="25.0" x2="210.00" y2="320.0" stroke="#808080" stroke-opacity="0.2"/>
  <line x1="262.55" y1="25.0" x2="262.55" y2="320.0" stroke="#808080" stroke-opacity="0.2"/>
  <line x1="315.10" y1="25.0" x2="315.10" y2="320.0" stroke="#808080" stroke-opacity="0.2"/>
  <line x1="367.64" y1="25.0" x2="367.64" y2="320.0" stroke="#808080" stroke-opacity="0.2"/>
  <line x1="45.0" y1="320.00" x2="375.0" y2="320.00" stroke="#808080" stroke-opacity="0.2"/>
  <line x1="45.0" y1="270.83" x2="375.0" y2="270.83" stroke="#808080" stroke-opacity="0.2"/>
  <line x1="45.0" y1="221.67" x2="375.0" y2="221.67" stroke="#808080" stroke-opacity="0.2"/>
  <line x1="45.0" y1="172.50" x2="375.0" y2="172.50" stroke="#808080" stroke-opacity="0.2"/>
  <line x1="45.0" y1="123.33" x2="375.0" y2="123.33" stroke="#808080" stroke-opacity="0.2"/>
  <line x1="45.0" y1="74.17" x2="375.0" y2="74.17" stroke="#808080" stroke-opacity="0.2"/>
  <line x1="45.0" y1="25.00" x2="375.0" y2="25.00" stroke="#808080" stroke-opacity="0.2"/>
  <line x1="45.0" y1="172.50" x2="375.0" y2="172.50" stroke="#000000" stroke-width="1.5"/>
  <polygon points="375.0,172.50 367.0,168.50 367.0,176.50" fill="#000000"/>
  <text x="385.0" y="172.50" class="axis-label" dominant-baseline="middle">x</text>
  <line x1="210.00" y1="320.0" x2="210.00" y2="25.0" stroke="#000000" stroke-width="1.5"/>
  <polygon points="210.00,25.0 206.00,33.0 214.00,33.0" fill="#000000"/>
  <text x="210.00" y="15.0" class="axis-label" text-anchor="middle">y</text>
  <line x1="52.36" y1="169.50" x2="52.36" y2="175.50" stroke="#000000" stroke-opacity="0.5"/>
  <text x="52.36" y="187.50" class="tick-value" text-anchor="middle">-6</text>
  <line x1="104.90" y1="169.50" x2="104.90" y2="175.50" stroke="#000000" stroke-opacity="0.5"/>
  <text x="104.90" y="187.50" class="tick-value" text-anchor="middle">-4</text>
  <line x1="157.45" y1="169.50" x2="157.45" y2="175.50" stroke="#000000" stroke-opacity="0.5"/>
  <text x="157.45" y="187.50" class="tick-value" text-anchor="middle">-2</text>
  <line x1="210.00" y1="169.50" x2="210.00" y2="175.50" stroke="#000000" stroke-opacity="0.5"/>
  <line x1="262.55" y1="169.50" x2="262.55" y2="175.50" stroke="#000000" stroke-opacity="0.5"/>
  <text x="262.55" y="187.50" class="tick-value" text-anchor="middle">2</text>
  <line x1="315.10" y1="169.50" x2="315.10" y2="175.50" stroke="#000000" stroke-opacity="0.5"/>
  <text x="315.10" y="187.50" class="tick-value" text-anchor="middle">4</text>
  <line x1="367.64" y1="169.50" x2="367.64" y2="175.50" stroke="#000000" stroke-opacity="0.5"/>
  <text x="367.64" y="187.50" class="tick-value" text-anchor="middle">6</text>
  <line x1="207.00" y1="320.00" x2="213.00" y2="320.00" stroke="#000000" stroke-opacity="0.5"/>
  <text x="202.00" y="320.00" class="tick-value" text-anchor="end" dominant-baseline="middle">-1.5</text>
  <line x1="207.00" y1="270.83" x2="213.00" y2="270.83" stroke="#000000" stroke-opacity="0.5"/>
  <text x="202.00" y="270.83" class="tick-value" text-anchor="end" dominant-baseline="middle">-1</text>
  <line x1="207.00" y1="221.67" x2="213.00" y2="221.67" stroke="#000000" stroke-opacity="0.5"/>
  <text x="202.00" y="221.67" class="tick-value" text-anchor="end" dominant-baseline="middle">-0.50</text>
  <line x1="207.00" y1="172.50" x2="213.00" y2="172.50" stroke="#000000" stroke-opacity="0.5"/>
  <line x1="207.00" y1="123.33" x2="213.00" y2="123.33" stroke="#000000" stroke-opacity="0.5"/>
  <text x="202.00" y="123.33" class="tick-value" text-anchor="end" dominant-baseline="middle">0.50</text>
  <line x1="207.00" y1="74.17" x2="213.00" y2="74.17" stroke="#000000" stroke-opacity="0.5"/>
  <text x="202.00" y="74.17" class="tick-value" text-anchor="end" dominant-baseline="middle">1</text>
  <line x1="207.00" y1="25.00" x2="213.00" y2="25.00" stroke="#000000" stroke-opacity="0.5"/>
  <text x="202.00" y="25.00" class="tick-value" text-anchor="end" dominant-baseline="middle">1.5</text>
  <g clip-path="url(#chartClip)">
    <path d="M45.00,172.19 L45.66,169.72 L46.32,167.25 L46.98,164.78 L47.64,162.32 L48.30,159.87 L48.96,157.43 L49.62,154.99 L50.28,152.56 L50.94,150.15 L51.60,147.75 L52.26,145.37 L52.92,143.01 L53.58,140.66 L54.24,138.33 L54.90,136.03 L55.56,133.75 L56.22,131.49 L56.88,129.26 L57.54,127.05 L58.20,124.88 L58.86,122.73 L59.52,120.61 L60.18,118.53 L60.84,116.49 L61.50,114.47 L62.16,112.50 L62.82,110.56 L63.48,108.66 L64.14,106.80 L64.80,104.99 L65.46,103.21 L66.12,101.48 L66.78,99.79 L67.44,98.15 L68.10,96.56 L68.76,95.02 L69.42,93.52 L70.08,92.07 L70.74,90.68 L71.40,89.33 L72.06,88.04 L72.72,86.80 L73.38,85.62 L74.04,84.49 L74.70,83.42 L75.36,82.40 L76.02,81.44 L76.68,80.53 L77.34,79.69 L78.00,78.90 L78.66,78.17 L79.32,77.51 L79.98,76.90 L80.64,76.35 L81.30,75.86 L81.96,75.44 L82.62,75.07 L83.28,74.77 L83.94,74.53 L84.60,74.35 L85.26,74.23 L85.92,74.17 L86.58,74.18 L87.24,74.25 L87.90,74.38 L88.56,74.57 L89.22,74.82 L89.88,75.14 L90.54,75.51 L91.20,75.95 L91.86,76.45 L92.52,77.01 L93.18,77.63 L93.84,78.31 L94.50,79.05 L95.16,79.85 L95.82,80.70 L96.48,81.62 L97.14,82.59 L97.80,83.62 L98.46,84.70 L99.12,85.84 L99.78,87.04 L100.44,88.28 L101.10,89.59 L101.76,90.94 L102.42,92.34 L103.08,93.80 L103.74,95.31 L104.40,96.86 L105.06,98.46 L105.72,100.11 L106.38,101.81 L107.04,103.55 L107.70,105.33 L108.36,107.15 L109.02,109.02 L109.68,110.93 L110.34,112.87 L111.00,114.85 L111.66,116.87 L112.32,118.93 L112.98,121.01 L113.64,123.14 L114.30,125.29 L114.96,127.47 L115.62,129.68 L116.28,131.92 L116.94,134.18 L117.60,136.46 L118.26,138.77 L118.92,141.10 L119.58,143.45 L120.24,145.82 L120.90,148.21 L121.56,150.61 L122.22,153.03 L122.88,155.45 L123.54,157.89 L124.20,160.34 L124.86,162.79 L125.52,165.25 L126.18,167.72 L126.84,170.19 L127.50,172.66 L128.16,175.13 L128.82,177.59 L129.48,180.06 L130.14,182.52 L130.80,184.97 L131.46,187.42 L132.12,189.86 L132.78,192.28 L133.44,194.69 L134.10,197.09 L134.76,199.48 L135.42,201.84 L136.08,204.19 L136.74,206.52 L137.40,208.83 L138.06,211.11 L138.72,213.37 L139.38,215.60 L140.04,217.81 L140.70,219.99 L141.36,222.14 L142.02,224.25 L142.68,226.34 L143.34,228.39 L144.00,230.40 L144.66,232.38 L145.32,234.32 L145.98,236.22 L146.64,238.08 L147.30,239.90 L147.96,241.68 L148.62,243.41 L149.28,245.10 L149.94,246.74 L150.60,248.34 L151.26,249.89 L151.92,251.39 L152.58,252.84 L153.24,254.24 L153.90,255.58 L154.56,256.88 L155.22,258.12 L155.88,259.31 L156.54,260.44 L157.20,261.52 L157.86,262.54 L158.52,263.50 L159.18,264.41 L159.84,265.26 L160.50,266.05 L161.16,266.78 L161.82,267.45 L162.48,268.07 L163.14,268.62 L163.80,269.11 L164.46,269.54 L165.12,269.91 L165.78,270.21 L166.44,270.46 L167.10,270.64 L167.76,270.77 L168.42,270.83 L169.08,270.82 L169.74,270.76 L170.40,270.63 L171.06,270.45 L171.72,270.20 L172.38,269.89 L173.04,269.51 L173.70,269.08 L174.36,268.58 L175.02,268.03 L175.68,267.41 L176.34,266.74 L177.00,266.00 L177.66,265.21 L178.32,264.35 L178.98,263.44 L179.64,262.48 L180.30,261.45 L180.96,260.37 L181.62,259.23 L182.28,258.04 L182.94,256.80 L183.60,255.50 L184.26,254.15 L184.92,252.75 L185.58,251.29 L186.24,249.79 L186.90,248.24 L187.56,246.64 L188.22,244.99 L188.88,243.30 L189.54,241.57 L190.20,239.79 L190.86,237.96 L191.52,236.10 L192.18,234.20 L192.84,232.25 L193.50,230.27 L194.16,228.26 L194.82,226.20 L195.48,224.12 L196.14,222.00 L196.80,219.85 L197.46,217.67 L198.12,215.46 L198.78,213.23 L199.44,210.97 L200.10,208.68 L200.76,206.37 L201.42,204.04 L202.08,201.69 L202.74,199.33 L203.40,196.94 L204.06,194.54 L204.72,192.13 L205.38,189.70 L206.04,187.26 L206.70,184.82 L207.36,182.36 L208.02,179.90 L208.68,177.44 L209.34,174.97 L210.00,172.50 L210.66,170.03 L211.32,167.56 L211.98,165.10 L212.64,162.64 L213.30,160.18 L213.96,157.74 L214.62,155.30 L215.28,152.87 L215.94,150.46 L216.60,148.06 L217.26,145.67 L217.92,143.31 L218.58,140.96 L219.24,138.63 L219.90,136.32 L220.56,134.03 L221.22,131.77 L221.88,129.54 L222.54,127.33 L223.20,125.15 L223.86,123.00 L224.52,120.88 L225.18,118.80 L225.84,116.74 L226.50,114.73 L227.16,112.75 L227.82,110.80 L228.48,108.90 L229.14,107.04 L229.80,105.21 L230.46,103.43 L231.12,101.70 L231.78,100.01 L232.44,98.36 L233.10,96.76 L233.76,95.21 L234.42,93.71 L235.08,92.25 L235.74,90.85 L236.40,89.50 L237.06,88.20 L237.72,86.96 L238.38,85.77 L239.04,84.63 L239.70,83.55 L240.36,82.52 L241.02,81.56 L241.68,80.65 L242.34,79.79 L243.00,79.00 L243.66,78.26 L244.32,77.59 L244.98,76.97 L245.64,76.42 L246.30,75.92 L246.96,75.49 L247.62,75.11 L248.28,74.80 L248.94,74.55 L249.60,74.37 L250.26,74.24 L250.92,74.18 L251.58,74.17 L252.24,74.23 L252.90,74.36 L253.56,74.54 L254.22,74.79 L254.88,75.09 L255.54,75.46 L256.20,75.89 L256.86,76.38 L257.52,76.93 L258.18,77.55 L258.84,78.22 L259.50,78.95 L260.16,79.74 L260.82,80.59 L261.48,81.50 L262.14,82.46 L262.80,83.48 L263.46,84.56 L264.12,85.69 L264.78,86.88 L265.44,88.12 L266.10,89.42 L266.76,90.76 L267.42,92.16 L268.08,93.61 L268.74,95.11 L269.40,96.66 L270.06,98.26 L270.72,99.90 L271.38,101.59 L272.04,103.32 L272.70,105.10 L273.36,106.92 L274.02,108.78 L274.68,110.68 L275.34,112.62 L276.00,114.60 L276.66,116.61 L277.32,118.66 L277.98,120.75 L278.64,122.86 L279.30,125.01 L279.96,127.19 L280.62,129.40 L281.28,131.63 L281.94,133.89 L282.60,136.17 L283.26,138.48 L283.92,140.81 L284.58,143.16 L285.24,145.52 L285.90,147.91 L286.56,150.31 L287.22,152.72 L287.88,155.14 L288.54,157.58 L289.20,160.03 L289.86,162.48 L290.52,164.94 L291.18,167.41 L291.84,169.87 L292.50,172.34 L293.16,174.81 L293.82,177.28 L294.48,179.75 L295.14,182.21 L295.80,184.66 L296.46,187.11 L297.12,189.55 L297.78,191.97 L298.44,194.39 L299.10,196.79 L299.76,199.18 L300.42,201.55 L301.08,203.90 L301.74,206.23 L302.40,208.54 L303.06,210.82 L303.72,213.08 L304.38,215.32 L305.04,217.53 L305.70,219.71 L306.36,221.86 L307.02,223.99 L307.68,226.07 L308.34,228.13 L309.00,230.15 L309.66,232.13 L310.32,234.07 L310.98,235.98 L311.64,237.85 L312.30,239.67 L312.96,241.45 L313.62,243.19 L314.28,244.89 L314.94,246.54 L315.60,248.14 L316.26,249.69 L316.92,251.20 L317.58,252.66 L318.24,254.06 L318.90,255.41 L319.56,256.72 L320.22,257.96 L320.88,259.16 L321.54,260.30 L322.20,261.38 L322.86,262.41 L323.52,263.38 L324.18,264.30 L324.84,265.15 L325.50,265.95 L326.16,266.69 L326.82,267.37 L327.48,267.99 L328.14,268.55 L328.80,269.05 L329.46,269.49 L330.12,269.86 L330.78,270.18 L331.44,270.43 L332.10,270.62 L332.76,270.75 L333.42,270.82 L334.08,270.83 L334.74,270.77 L335.40,270.65 L336.06,270.47 L336.72,270.23 L337.38,269.93 L338.04,269.56 L338.70,269.14 L339.36,268.65 L340.02,268.10 L340.68,267.49 L341.34,266.83 L342.00,266.10 L342.66,265.31 L343.32,264.47 L343.98,263.56 L344.64,262.60 L345.30,261.58 L345.96,260.51 L346.62,259.38 L347.28,258.20 L347.94,256.96 L348.60,255.67 L349.26,254.32 L349.92,252.93 L350.58,251.48 L351.24,249.98 L351.90,248.44 L352.56,246.85 L353.22,245.21 L353.88,243.52 L354.54,241.79 L355.20,240.01 L355.86,238.20 L356.52,236.34 L357.18,234.44 L357.84,232.50 L358.50,230.53 L359.16,228.51 L359.82,226.47 L360.48,224.39 L361.14,222.27 L361.80,220.12 L362.46,217.95 L363.12,215.74 L363.78,213.51 L364.44,211.25 L365.10,208.97 L365.76,206.67 L366.42,204.34 L367.08,201.99 L367.74,199.63 L368.40,197.25 L369.06,194.85 L369.72,192.44 L370.38,190.01 L371.04,187.57 L371.70,185.13 L372.36,182.68 L373.02,180.22 L373.68,177.75 L374.34,175.28" fill="none" stroke="#2196F3" stroke-width="2" stroke-linecap="round" stroke-linejoin="round"/>
  </g>
  <line x1="45.00" y1="330.0" x2="65.00" y2="330.0" stroke="#2196F3" stroke-width="3" stroke-linecap="round"/>
  <text x="71.00" y="330.0" class="legend-text" dominant-baseline="middle">sin(x)</text>
</svg>
