<?xml version="1.0" encoding="UTF-8"?>
<svg xmlns="http://www.w3.org/2000/svg" width="400.0" height="320.0" viewBox="0 0 400.0 320.0">
  <style>
    .title { font-family: sans-serif; font-weight: bold; font-size: 16px; text-anchor: middle; }
    .axis-label { font-family: sans-serif; font-size: 12px; fill: #00000099; }
    .axis-value { font-family: sans-serif; font-size: 10px; fill: #000000B3; }
    .bar-label { font-family: sans-serif; font-size: 11px; fill: #000000CC; text-anchor: middle; }
    .legend-text { font-family: sans-serif; font-size: 11px; fill: #000000; }
  </style>
  <rect width="400.0" height="320.0" fill="white"/>
  <text x="200.0" y="20" class="title" fill="#000000">Quarterly Revenue</text>
  <text x="14" y="137.5" class="axis-label" transform="rotate(-90, 14, 137.5)" text-anchor="middle">Revenue (K)</text>
  <line x1="65.0" y1="235.00" x2="380.0" y2="235.00" stroke="#808080" stroke-opacity="0.3"/>
  <text x="60.0" y="235.00" class="axis-value" text-anchor="end" dominant-baseline="middle">0</text>
  <line x1="65.0" y1="202.50" x2="380.0" y2="202.50" stroke="#808080" stroke-opacity="0.3"/>
  <text x="60.0" y="202.50" class="axis-value" text-anchor="end" dominant-baseline="middle">50</text>
  <line x1="65.0" y1="170.00" x2="380.0" y2="170.00" stroke="#808080" stroke-opacity="0.3"/>
  <text x="60.0" y="170.00" class="axis-value" text-anchor="end" dominant-baseline="middle">100</text>
  <line x1="65.0" y1="137.50" x2="380.0" y2="137.50" stroke="#808080" stroke-opacity="0.3"/>
  <text x="60.0" y="137.50" class="axis-value" text-anchor="end" dominant-baseline="middle">150</text>
  <line x1="65.0" y1="105.00" x2="380.0" y2="105.00" stroke="#808080" stroke-opacity="0.3"/>
  <text x="60.0" y="105.00" class="axis-value" text-anchor="end" dominant-baseline="middle">200</text>
  <line x1="65.0" y1="72.50" x2="380.0" y2="72.50" stroke="#808080" stroke-opacity="0.3"/>
  <text x="60.0" y="72.50" class="axis-value" text-anchor="end" dominant-baseline="middle">250</text>
  <line x1="65.0" y1="40.00" x2="380.0" y2="40.00" stroke="#808080" stroke-opacity="0.3"/>
  <text x="60.0" y="40.00" class="axis-value" text-anchor="end" dominant-baseline="middle">300</text>
  <rect x="80.75" y="170.00" width="47.25" height="65.00" rx="2" fill="#2196F3"/>
  <rect x="80.75" y="144.00" width="47.25" height="26.00" rx="2" fill="#FF9800"/>
  <text x="104.38" y="250.00" class="bar-label">Q1</text>
  <rect x="159.50" y="137.50" width="47.25" height="97.50" rx="2" fill="#2196F3"/>
  <rect x="159.50" y="98.50" width="47.25" height="39.00" rx="2" fill="#FF9800"/>
  <text x="183.13" y="250.00" class="bar-label">Q2</text>
  <rect x="238.25" y="157.00" width="47.25" height="78.00" rx="2" fill="#2196F3"/>
  <rect x="238.25" y="124.50" width="47.25" height="32.50" rx="2" fill="#FF9800"/>
  <text x="261.88" y="250.00" class="bar-label">Q3</text>
  <rect x="317.00" y="118.00" width="47.25" height="117.00" rx="2" fill="#2196F3"/>
  <rect x="317.00" y="72.50" width="47.25" height="45.50" rx="2" fill="#FF9800"/>
  <text x="340.63" y="250.00" class="bar-label">Q4</text>
  <text x="222.5" y="270.0" class="axis-label" text-anchor="middle">Quarter</text>
  <rect x="65.00" y="297.00" width="12" height="12" rx="2" fill="#2196F3"/>
  <text x="81.00" y="305.00" class="legend-text" dominant-baseline="middle">Product A</text>
  <rect x="145.00" y="297.00" width="12" height="12" rx="2" fill="#FF9800"/>
  <text x="161.00" y="305.00" class="legend-text" dominant-baseline="middle">Product B</text>
</svg>
