<?xml version="1.0" encoding="UTF-8"?>
<svg xmlns="http://www.w3.org/2000/svg" width="280.0" height="280.0" viewBox="0 0 280.0 280.0">
  <style>
    .vertex-label { font-family: sans-serif; font-size: 14px; font-weight: 600; }
  </style>
  <rect width="280.0" height="280.0" fill="#FFFFFF"/>
  <line x1="97.59" y1="126.92" x2="192.25" y2="128.65" stroke="#000000" stroke-width="1.5" stroke-linecap="round" stroke-dasharray="5,4" stroke-opacity="0.5"/>
  <line x1="140.00" y1="213.44" x2="192.25" y2="128.65" stroke="#000000" stroke-width="1.5" stroke-linecap="round" stroke-dasharray="5,4" stroke-opacity="0.5"/>
  <line x1="140.00" y1="213.44" x2="97.59" y2="126.92" stroke="#000000" stroke-width="1.5" stroke-linecap="round" stroke-dasharray="5,4" stroke-opacity="0.5"/>
  <line x1="211.48" y1="162.05" x2="140.00" y2="52.16" stroke="#000000" stroke-width="2" stroke-linecap="round"/>
  <line x1="211.48" y1="162.05" x2="192.25" y2="128.65" stroke="#000000" stroke-width="2" stroke-linecap="round"/>
  <line x1="192.25" y1="128.65" x2="140.00" y2="52.16" stroke="#000000" stroke-width="2" stroke-linecap="round"/>
  <line x1="97.59" y1="126.92" x2="140.00" y2="52.16" stroke="#000000" stroke-width="2" stroke-linecap="round"/>
  <line x1="97.59" y1="126.92" x2="59.26" y2="157.53" stroke="#000000" stroke-width="2" stroke-linecap="round"/>
  <line x1="59.26" y1="157.53" x2="140.00" y2="52.16" stroke="#000000" stroke-width="2" stroke-linecap="round"/>
  <line x1="211.48" y1="162.05" x2="59.26" y2="157.53" stroke="#000000" stroke-width="2" stroke-linecap="round"/>
  <line x1="140.00" y1="213.44" x2="211.48" y2="162.05" stroke="#000000" stroke-width="2" stroke-linecap="round"/>
  <line x1="140.00" y1="213.44" x2="59.26" y2="157.53" stroke="#000000" stroke-width="2" stroke-linecap="round"/>
  <circle cx="140.00" cy="52.16" r="4" fill="#000000"/>
  <text x="140.00" y="44.16" class="vertex-label" fill="#000000" text-anchor="middle">T</text>
  <circle cx="140.00" cy="213.44" r="4" fill="#000000"/>
  <text x="140.00" y="229.44" class="vertex-label" fill="#000000" text-anchor="middle">B</text>
  <circle cx="211.48" cy="162.05" r="4" fill="#000000"/>
  <text x="219.48" y="178.05" class="vertex-label" fill="#000000" text-anchor="start">F</text>
  <circle cx="97.59" cy="126.92" r="4" fill="#000000"/>
  <text x="85.59" y="118.92" class="vertex-label" fill="#000000" text-anchor="end">K</text>
  <circle cx="59.26" cy="157.53" r="4" fill="#000000"/>
  <text x="47.26" y="173.53" class="vertex-label" fill="#000000" text-anchor="end">L</text>
  <circle cx="192.25" cy="128.65" r="4" fill="#000000"/>
  <text x="200.25" y="120.65" class="vertex-label" fill="#000000" text-anchor="start">R</text>
</svg>
