<?xml version="1.0" encoding="UTF-8"?>
<svg xmlns="http://www.w3.org/2000/svg" width="400.0" height="280.0" viewBox="0 0 400.0 280.0">
  <style>
    .title { font-family: sans-serif; font-weight: bold; font-size: 16px; text-anchor: middle; }
    .axis-label { font-family: sans-serif; font-size: 12px; fill: #00000099; }
    .axis-value { font-family: sans-serif; font-size: 10px; fill: #000000B3; }
    .point-label { font-family: sans-serif; font-size: 10px; fill: #000000CC; text-anchor: middle; }
    .legend-text { font-family: sans-serif; font-size: 11px; fill: #000000; }
  </style>
  <rect width="400.0" height="280.0" fill="white"/>
  <text x="200.0" y="20" class="title" fill="#000000">Weekly Temperature</text>
  <text x="14" y="132.5" class="axis-label" transform="rotate(-90, 14, 132.5)" text-anchor="middle">Temp (°C)</text>
  <line x1="65.0" y1="230.00" x2="380.0" y2="230.00" stroke="#808080" stroke-opacity="0.2"/>
  <text x="60.0" y="230.00" class="axis-value" text-anchor="end" dominant-baseline="middle">15</text>
  <line x1="65.0" y1="165.00" x2="380.0" y2="165.00" stroke="#808080" stroke-opacity="0.2"/>
  <text x="60.0" y="165.00" class="axis-value" text-anchor="end" dominant-baseline="middle">20</text>
  <line x1="65.0" y1="100.00" x2="380.0" y2="100.00" stroke="#808080" stroke-opacity="0.2"/>
  <text x="60.0" y="100.00" class="axis-value" text-anchor="end" dominant-baseline="middle">25</text>
  <line x1="65.0" y1="35.00" x2="380.0" y2="35.00" stroke="#808080" stroke-opacity="0.2"/>
  <text x="60.0" y="35.00" class="axis-value" text-anchor="end" dominant-baseline="middle">30</text>
  <path d="M65.00,165.00 L143.75,139.00 L222.50,178.00 L301.25,113.00 L380.00,152.00" fill="none" stroke="#2196F3" stroke-width="2.5" stroke-linecap="round" stroke-linejoin="round"/>
  <circle cx="65.00" cy="165.00" r="4" fill="white" stroke="#2196F3" stroke-width="2"/>
  <circle cx="143.75" cy="139.00" r="4" fill="white" stroke="#2196F3" stroke-width="2"/>
  <circle cx="222.50" cy="178.00" r="4" fill="white" stroke="#2196F3" stroke-width="2"/>
  <circle cx="301.25" cy="113.00" r="4" fill="white" stroke="#2196F3" stroke-width="2"/>
  <circle cx="380.00" cy="152.00" r="4" fill="white" stroke="#2196F3" stroke-width="2"/>
  <text x="65.00" y="245.00" class="point-label">Mon</text>
  <text x="143.75" y="245.00" class="point-label">Tue</text>
  <text x="222.50" y="245.00" class="point-label">Wed</text>
  <text x="301.25" y="245.00" class="point-label">Thu</text>
  <text x="380.00" y="245.00" class="point-label">Fri</text>
  <text x="222.5" y="262.0" class="axis-label" text-anchor="middle">Day</text>
</svg>
