<?xml version="1.0" encoding="UTF-8"?>
<svg xmlns="http://www.w3.org/2000/svg" width="280.0" height="120.0" viewBox="0 0 280.0 120.0">
  <style>
    .period-text { font-family: sans-serif; font-weight: bold; }
  </style>
  <rect x="0" y="0" width="280.0" height="120.0" rx="8" ry="8" fill="#000000" stroke="#808080" stroke-width="2"/>
    <path d="M45.00,36.00 L48.00,33.00 L70.00,33.00 L73.00,36.00 L70.00,39.00 L48.00,39.00 Z" fill="#00FF00"/>
    <path d="M73.00,36.75 L76.00,39.75 L76.00,56.25 L73.00,59.25 L70.00,56.25 L70.00,39.75 Z" fill="#00FF00"/>
    <path d="M73.00,60.75 L76.00,63.75 L76.00,80.25 L73.00,83.25 L70.00,80.25 L70.00,63.75 Z" fill="#00FF00"/>
    <path d="M45.00,84.00 L48.00,81.00 L70.00,81.00 L73.00,84.00 L70.00,87.00 L48.00,87.00 Z" fill="#00FF00"/>
    <path d="M45.00,60.75 L48.00,63.75 L48.00,80.25 L45.00,83.25 L42.00,80.25 L42.00,63.75 Z" fill="#00FF00"/>
    <path d="M45.00,36.75 L48.00,39.75 L48.00,56.25 L45.00,59.25 L42.00,56.25 L42.00,39.75 Z" fill="#00FF00"/>
    <path d="M45.00,60.00 L48.00,57.00 L70.00,57.00 L73.00,60.00 L70.00,63.00 L48.00,63.00 Z" fill="rgba(128,128,128,0.15)"/>
    <path d="M91.00,36.00 L94.00,33.00 L116.00,33.00 L119.00,36.00 L116.00,39.00 L94.00,39.00 Z" fill="#00FF00"/>
    <path d="M119.00,36.75 L122.00,39.75 L122.00,56.25 L119.00,59.25 L116.00,56.25 L116.00,39.75 Z" fill="#00FF00"/>
    <path d="M119.00,60.75 L122.00,63.75 L122.00,80.25 L119.00,83.25 L116.00,80.25 L116.00,63.75 Z" fill="#00FF00"/>
    <path d="M91.00,84.00 L94.00,81.00 L116.00,81.00 L119.00,84.00 L116.00,87.00 L94.00,87.00 Z" fill="#00FF00"/>
    <path d="M91.00,60.75 L94.00,63.75 L94.00,80.25 L91.00,83.25 L88.00,80.25 L88.00,63.75 Z" fill="rgba(128,128,128,0.15)"/>
    <path d="M91.00,36.75 L94.00,39.75 L94.00,56.25 L91.00,59.25 L88.00,56.25 L88.00,39.75 Z" fill="rgba(128,128,128,0.15)"/>
    <path d="M91.00,60.00 L94.00,57.00 L116.00,57.00 L119.00,60.00 L116.00,63.00 L94.00,63.00 Z" fill="#00FF00"/>
  <circle cx="140.0" cy="50.0" r="3" fill="#00FF00"/>
  <circle cx="140.0" cy="70.0" r="3" fill="#00FF00"/>
    <path d="M161.00,36.00 L164.00,33.00 L186.00,33.00 L189.00,36.00 L186.00,39.00 L164.00,39.00 Z" fill="rgba(128,128,128,0.15)"/>
    <path d="M189.00,36.75 L192.00,39.75 L192.00,56.25 L189.00,59.25 L186.00,56.25 L186.00,39.75 Z" fill="#00FF00"/>
    <path d="M189.00,60.75 L192.00,63.75 L192.00,80.25 L189.00,83.25 L186.00,80.25 L186.00,63.75 Z" fill="#00FF00"/>
    <path d="M161.00,84.00 L164.00,81.00 L186.00,81.00 L189.00,84.00 L186.00,87.00 L164.00,87.00 Z" fill="rgba(128,128,128,0.15)"/>
    <path d="M161.00,60.75 L164.00,63.75 L164.00,80.25 L161.00,83.25 L158.00,80.25 L158.00,63.75 Z" fill="rgba(128,128,128,0.15)"/>
    <path d="M161.00,36.75 L164.00,39.75 L164.00,56.25 L161.00,59.25 L158.00,56.25 L158.00,39.75 Z" fill="#00FF00"/>
    <path d="M161.00,60.00 L164.00,57.00 L186.00,57.00 L189.00,60.00 L186.00,63.00 L164.00,63.00 Z" fill="#00FF00"/>
    <path d="M207.00,36.00 L210.00,33.00 L232.00,33.00 L235.00,36.00 L232.00,39.00 L210.00,39.00 Z" fill="#00FF00"/>
    <path d="M235.00,36.75 L238.00,39.75 L238.00,56.25 L235.00,59.25 L232.00,56.25 L232.00,39.75 Z" fill="rgba(128,128,128,0.15)"/>
    <path d="M235.00,60.75 L238.00,63.75 L238.00,80.25 L235.00,83.25 L232.00,80.25 L232.00,63.75 Z" fill="#00FF00"/>
    <path d="M207.00,84.00 L210.00,81.00 L232.00,81.00 L235.00,84.00 L232.00,87.00 L210.00,87.00 Z" fill="#00FF00"/>
    <path d="M207.00,60.75 L210.00,63.75 L210.00,80.25 L207.00,83.25 L204.00,80.25 L204.00,63.75 Z" fill="rgba(128,128,128,0.15)"/>
    <path d="M207.00,36.75 L210.00,39.75 L210.00,56.25 L207.00,59.25 L204.00,56.25 L204.00,39.75 Z" fill="#00FF00"/>
    <path d="M207.00,60.00 L210.00,57.00 L232.00,57.00 L235.00,60.00 L232.00,63.00 L210.00,63.00 Z" fill="#00FF00"/>
  <text x="268.0" y="108.0" class="period-text" fill="#00FF00" font-size="14" text-anchor="end">AM</text>
</svg>
