<?xml version="1.0" encoding="UTF-8"?>
<svg xmlns="http://www.w3.org/2000/svg" width="280.0" height="280.0" viewBox="0 0 280.0 280.0">
  <style>
    .vertex-label { font-family: sans-serif; font-size: 14px; font-weight: 600; }
  </style>
  <rect width="280.0" height="280.0" fill="#FFFFFF"/>
  <line x1="82.71" y1="159.55" x2="163.87" y2="145.59" stroke="#000000" stroke-width="1.5" stroke-linecap="round" stroke-dasharray="5,4" stroke-opacity="0.5"/>
  <line x1="82.71" y1="159.55" x2="175.78" y2="180.46" stroke="#000000" stroke-width="2" stroke-linecap="round"/>
  <line x1="163.87" y1="145.59" x2="175.78" y2="180.46" stroke="#000000" stroke-width="2" stroke-linecap="round"/>
  <line x1="163.87" y1="145.59" x2="140.01" y2="75.74" stroke="#000000" stroke-width="2" stroke-linecap="round"/>
  <line x1="82.71" y1="159.55" x2="140.01" y2="75.74" stroke="#000000" stroke-width="2" stroke-linecap="round"/>
  <line x1="175.78" y1="180.46" x2="140.01" y2="75.74" stroke="#000000" stroke-width="2" stroke-linecap="round"/>
  <line x1="82.71" y1="159.55" x2="178.29" y2="111.43" stroke="#2196F3" stroke-width="2" stroke-linecap="round" stroke-dasharray="5,4"/>
  <line x1="175.78" y1="180.46" x2="178.29" y2="111.43" stroke="#2196F3" stroke-width="2" stroke-linecap="round" stroke-dasharray="5,4"/>
  <line x1="163.87" y1="145.59" x2="22.80" y2="191.30" stroke="#2196F3" stroke-width="2" stroke-linecap="round" stroke-dasharray="5,4"/>
  <line x1="140.01" y1="75.74" x2="22.80" y2="191.30" stroke="#2196F3" stroke-width="2" stroke-linecap="round" stroke-dasharray="5,4"/>
  <line x1="82.71" y1="159.55" x2="175.78" y2="180.46" stroke="#2196F3" stroke-width="2" stroke-linecap="round" stroke-dasharray="5,4"/>
  <circle cx="82.71" cy="159.55" r="4" fill="#000000"/>
  <text x="70.71" y="175.55" class="vertex-label" fill="#000000" text-anchor="end">A</text>
  <circle cx="163.87" cy="145.59" r="4" fill="#000000"/>
  <text x="171.87" y="161.59" class="vertex-label" fill="#000000" text-anchor="start">B</text>
  <circle cx="175.78" cy="180.46" r="4" fill="#000000"/>
  <text x="183.78" y="196.46" class="vertex-label" fill="#000000" text-anchor="start">C</text>
  <circle cx="140.01" cy="75.74" r="4" fill="#000000"/>
  <text x="148.01" y="67.74" class="vertex-label" fill="#000000" text-anchor="start">D</text>
  <circle cx="178.29" cy="111.43" r="5" fill="#2196F3"/>
  <text x="186.29" y="103.43" class="vertex-label" fill="#2196F3" text-anchor="start">P</text>
  <circle cx="22.80" cy="191.30" r="5" fill="#2196F3"/>
  <text x="10.80" y="207.30" class="vertex-label" fill="#2196F3" text-anchor="end">Q</text>
</svg>
