<?xml version="1.0" encoding="UTF-8"?>
<svg xmlns="http://www.w3.org/2000/svg" width="400.0" height="350.0" viewBox="0 0 400.0 350.0">
  <style>
    .axis-label { font-family: sans-serif; font-size: 12px; font-style: italic; fill: #000000; }
    .tick-value { font-family: sans-serif; font-size: 10px; fill: #000000B3; }
    .legend-text { font-family: sans-serif; font-size: 12px; fill: #000000; }
  </style>
  <rect width="400.0" height="350.0" fill="white"/>
  <defs>
    <clipPath id="chartClip">
      <rect x="45.0" y="25.0" width="330.0" height="295.0"/>
    </clipPath>
  </defs>
  <line x1="45.00" y1="25.0" x2="45.00" y2="320.0" stroke="#808080" stroke-opacity="0.2"/>
  <line x1="78.00" y1="25.0" x2="78.00" y2="320.0" stroke="#808080" stroke-opacity="0.2"/>
  <line x1="111.00" y1="25.0" x2="111.00" y2="320.0" stroke="#808080" stroke-opacity="0.2"/>
  <line x1="144.00" y1="25.0" x2="144.00" y2="320.0" stroke="#808080" stroke-opacity="0.2"/>
  <line x1="177.00" y1="25.0" x2="177.00" y2="320.0" stroke="#808080" stroke-opacity="0.2"/>
  <line x1="210.00" y1="25.0" x2="210.00" y2="320.0" stroke="#808080" stroke-opacity="0.2"/>
  <line x1="243.00" y1="25.0" x2="243.00" y2="320.0" stroke="#808080" stroke-opacity="0.2"/>
  <line x1="276.00" y1="25.0" x2="276.00" y2="320.0" stroke="#808080" stroke-opacity="0.2"/>
  <line x1="309.00" y1="25.0" x2="309.00" y2="320.0" stroke="#808080" stroke-opacity="0.2"/>
  <line x1="342.00" y1="25.0" x2="342.00" y2="320.0" stroke="#808080" stroke-opacity="0.2"/>
  <line x1="375.00" y1="25.0" x2="375.00" y2="320.0" stroke="#808080" stroke-opacity="0.2"/>
  <line x1="45.0" y1="295.42" x2="375.0" y2="295.42" stroke="#808080" stroke-opacity="0.2"/>
  <line x1="45.0" y1="246.25" x2="375.0" y2="246.25" stroke="#808080" stroke-opacity="0.2"/>
  <line x1="45.0" y1="197.08" x2="375.0" y2="197.08" stroke="#808080" stroke-opacity="0.2"/>
  <line x1="45.0" y1="147.92" x2="375.0" y2="147.92" stroke="#808080" stroke-opacity="0.2"/>
  <line x1="45.0" y1="98.75" x2="375.0" y2="98.75" stroke="#808080" stroke-opacity="0.2"/>
  <line x1="45.0" y1="49.58" x2="375.0" y2="49.58" stroke="#808080" stroke-opacity="0.2"/>
  <line x1="45.0" y1="295.42" x2="375.0" y2="295.42" stroke="#000000" stroke-width="1.5"/>
  <polygon points="375.0,295.42 367.0,291.42 367.0,299.42" fill="#000000"/>
  <text x="385.0" y="295.42" class="axis-label" dominant-baseline="middle">x</text>
  <line x1="210.00" y1="320.0" x2="210.00" y2="25.0" stroke="#000000" stroke-width="1.5"/>
  <polygon points="210.00,25.0 206.00,33.0 214.00,33.0" fill="#000000"/>
  <text x="210.00" y="15.0" class="axis-label" text-anchor="middle">y</text>
  <line x1="45.00" y1="292.42" x2="45.00" y2="298.42" stroke="#000000" stroke-opacity="0.5"/>
  <text x="45.00" y="310.42" class="tick-value" text-anchor="middle">-5</text>
  <line x1="78.00" y1="292.42" x2="78.00" y2="298.42" stroke="#000000" stroke-opacity="0.5"/>
  <text x="78.00" y="310.42" class="tick-value" text-anchor="middle">-4</text>
  <line x1="111.00" y1="292.42" x2="111.00" y2="298.42" stroke="#000000" stroke-opacity="0.5"/>
  <text x="111.00" y="310.42" class="tick-value" text-anchor="middle">-3</text>
  <line x1="144.00" y1="292.42" x2="144.00" y2="298.42" stroke="#000000" stroke-opacity="0.5"/>
  <text x="144.00" y="310.42" class="tick-value" text-anchor="middle">-2</text>
  <line x1="177.00" y1="292.42" x2="177.00" y2="298.42" stroke="#000000" stroke-opacity="0.5"/>
  <text x="177.00" y="310.42" class="tick-value" text-anchor="middle">-1</text>
  <line x1="210.00" y1="292.42" x2="210.00" y2="298.42" stroke="#000000" stroke-opacity="0.5"/>
  <line x1="243.00" y1="292.42" x2="243.00" y2="298.42" stroke="#000000" stroke-opacity="0.5"/>
  <text x="243.00" y="310.42" class="tick-value" text-anchor="middle">1</text>
  <line x1="276.00" y1="292.42" x2="276.00" y2="298.42" stroke="#000000" stroke-opacity="0.5"/>
  <text x="276.00" y="310.42" class="tick-value" text-anchor="middle">2</text>
  <line x1="309.00" y1="292.42" x2="309.00" y2="298.42" stroke="#000000" stroke-opacity="0.5"/>
  <text x="309.00" y="310.42" class="tick-value" text-anchor="middle">3</text>
  <line x1="342.00" y1="292.42" x2="342.00" y2="298.42" stroke="#000000" stroke-opacity="0.5"/>
  <text x="342.00" y="310.42" class="tick-value" text-anchor="middle">4</text>
  <line x1="375.00" y1="292.42" x2="375.00" y2="298.42" stroke="#000000" stroke-opacity="0.5"/>
  <text x="375.00" y="310.42" class="tick-value" text-anchor="middle">5</text>
  <line x1="207.00" y1="295.42" x2="213.00" y2="295.42" stroke="#000000" stroke-opacity="0.5"/>
  <line x1="207.00" y1="246.25" x2="213.00" y2="246.25" stroke="#000000" stroke-opacity="0.5"/>
  <text x="202.00" y="246.25" class="tick-value" text-anchor="end" dominant-baseline="middle">5</text>
  <line x1="207.00" y1="197.08" x2="213.00" y2="197.08" stroke="#000000" stroke-opacity="0.5"/>
  <text x="202.00" y="197.08" class="tick-value" text-anchor="end" dominant-baseline="middle">10</text>
  <line x1="207.00" y1="147.92" x2="213.00" y2="147.92" stroke="#000000" stroke-opacity="0.5"/>
  <text x="202.00" y="147.92" class="tick-value" text-anchor="end" dominant-baseline="middle">15</text>
  <line x1="207.00" y1="98.75" x2="213.00" y2="98.75" stroke="#000000" stroke-opacity="0.5"/>
  <text x="202.00" y="98.75" class="tick-value" text-anchor="end" dominant-baseline="middle">20</text>
  <line x1="207.00" y1="49.58" x2="213.00" y2="49.58" stroke="#000000" stroke-opacity="0.5"/>
  <text x="202.00" y="49.58" class="tick-value" text-anchor="end" dominant-baseline="middle">25</text>
  <g clip-path="url(#chartClip)">
    <path d="M45.00,49.58 L45.66,51.55 L46.32,53.50 L46.98,55.45 L47.64,57.39 L48.30,59.32 L48.96,61.24 L49.62,63.16 L50.28,65.06 L50.94,66.96 L51.60,68.86 L52.26,70.74 L52.92,72.62 L53.58,74.49 L54.24,76.35 L54.90,78.20 L55.56,80.04 L56.22,81.88 L56.88,83.71 L57.54,85.53 L58.20,87.34 L58.86,89.15 L59.52,90.95 L60.18,92.74 L60.84,94.52 L61.50,96.29 L62.16,98.06 L62.82,99.82 L63.48,101.57 L64.14,103.31 L64.80,105.04 L65.46,106.77 L66.12,108.49 L66.78,110.20 L67.44,111.90 L68.10,113.60 L68.76,115.29 L69.42,116.97 L70.08,118.64 L70.74,120.30 L71.40,121.96 L72.06,123.60 L72.72,125.24 L73.38,126.88 L74.04,128.50 L74.70,130.12 L75.36,131.73 L76.02,133.33 L76.68,134.92 L77.34,136.51 L78.00,138.08 L78.66,139.65 L79.32,141.21 L79.98,142.77 L80.64,144.31 L81.30,145.85 L81.96,147.38 L82.62,148.90 L83.28,150.42 L83.94,151.92 L84.60,153.42 L85.26,154.91 L85.92,156.40 L86.58,157.87 L87.24,159.34 L87.90,160.80 L88.56,162.25 L89.22,163.69 L89.88,165.13 L90.54,166.56 L91.20,167.98 L91.86,169.39 L92.52,170.79 L93.18,172.19 L93.84,173.58 L94.50,174.96 L95.16,176.33 L95.82,177.70 L96.48,179.05 L97.14,180.40 L97.80,181.74 L98.46,183.08 L99.12,184.40 L99.78,185.72 L100.44,187.03 L101.10,188.33 L101.76,189.63 L102.42,190.91 L103.08,192.19 L103.74,193.46 L104.40,194.72 L105.06,195.98 L105.72,197.22 L106.38,198.46 L107.04,199.70 L107.70,200.92 L108.36,202.13 L109.02,203.34 L109.68,204.54 L110.34,205.73 L111.00,206.92 L111.66,208.09 L112.32,209.26 L112.98,210.42 L113.64,211.57 L114.30,212.72 L114.96,213.86 L115.62,214.98 L116.28,216.10 L116.94,217.22 L117.60,218.32 L118.26,219.42 L118.92,220.51 L119.58,221.59 L120.24,222.67 L120.90,223.73 L121.56,224.79 L122.22,225.84 L122.88,226.88 L123.54,227.92 L124.20,228.94 L124.86,229.96 L125.52,230.97 L126.18,231.98 L126.84,232.97 L127.50,233.96 L128.16,234.94 L128.82,235.91 L129.48,236.87 L130.14,237.83 L130.80,238.78 L131.46,239.72 L132.12,240.65 L132.78,241.57 L133.44,242.49 L134.10,243.40 L134.76,244.30 L135.42,245.19 L136.08,246.08 L136.74,246.95 L137.40,247.82 L138.06,248.68 L138.72,249.54 L139.38,250.38 L140.04,251.22 L140.70,252.05 L141.36,252.87 L142.02,253.69 L142.68,254.49 L143.34,255.29 L144.00,256.08 L144.66,256.87 L145.32,257.64 L145.98,258.41 L146.64,259.17 L147.30,259.92 L147.96,260.66 L148.62,261.40 L149.28,262.12 L149.94,262.84 L150.60,263.56 L151.26,264.26 L151.92,264.96 L152.58,265.65 L153.24,266.33 L153.90,267.00 L154.56,267.66 L155.22,268.32 L155.88,268.97 L156.54,269.61 L157.20,270.24 L157.86,270.87 L158.52,271.49 L159.18,272.10 L159.84,272.70 L160.50,273.29 L161.16,273.88 L161.82,274.46 L162.48,275.03 L163.14,275.59 L163.80,276.14 L164.46,276.69 L165.12,277.23 L165.78,277.76 L166.44,278.28 L167.10,278.80 L167.76,279.31 L168.42,279.81 L169.08,280.30 L169.74,280.78 L170.40,281.26 L171.06,281.72 L171.72,282.18 L172.38,282.64 L173.04,283.08 L173.70,283.52 L174.36,283.95 L175.02,284.37 L175.68,284.78 L176.34,285.19 L177.00,285.58 L177.66,285.97 L178.32,286.35 L178.98,286.73 L179.64,287.09 L180.30,287.45 L180.96,287.80 L181.62,288.14 L182.28,288.48 L182.94,288.80 L183.60,289.12 L184.26,289.43 L184.92,289.74 L185.58,290.03 L186.24,290.32 L186.90,290.60 L187.56,290.87 L188.22,291.13 L188.88,291.39 L189.54,291.64 L190.20,291.88 L190.86,292.11 L191.52,292.33 L192.18,292.55 L192.84,292.76 L193.50,292.96 L194.16,293.15 L194.82,293.34 L195.48,293.51 L196.14,293.68 L196.80,293.84 L197.46,294.00 L198.12,294.14 L198.78,294.28 L199.44,294.41 L200.10,294.53 L200.76,294.65 L201.42,294.75 L202.08,294.85 L202.74,294.94 L203.40,295.02 L204.06,295.10 L204.72,295.16 L205.38,295.22 L206.04,295.28 L206.70,295.32 L207.36,295.35 L208.02,295.38 L208.68,295.40 L209.34,295.41 L210.00,295.42 L210.66,295.41 L211.32,295.40 L211.98,295.38 L212.64,295.35 L213.30,295.32 L213.96,295.28 L214.62,295.22 L215.28,295.16 L215.94,295.10 L216.60,295.02 L217.26,294.94 L217.92,294.85 L218.58,294.75 L219.24,294.65 L219.90,294.53 L220.56,294.41 L221.22,294.28 L221.88,294.14 L222.54,294.00 L223.20,293.84 L223.86,293.68 L224.52,293.51 L225.18,293.34 L225.84,293.15 L226.50,292.96 L227.16,292.76 L227.82,292.55 L228.48,292.33 L229.14,292.11 L229.80,291.88 L230.46,291.64 L231.12,291.39 L231.78,291.13 L232.44,290.87 L233.10,290.60 L233.76,290.32 L234.42,290.03 L235.08,289.74 L235.74,289.43 L236.40,289.12 L237.06,288.80 L237.72,288.48 L238.38,288.14 L239.04,287.80 L239.70,287.45 L240.36,287.09 L241.02,286.73 L241.68,286.35 L242.34,285.97 L243.00,285.58 L243.66,285.19 L244.32,284.78 L244.98,284.37 L245.64,283.95 L246.30,283.52 L246.96,283.08 L247.62,282.64 L248.28,282.18 L248.94,281.72 L249.60,281.26 L250.26,280.78 L250.92,280.30 L251.58,279.81 L252.24,279.31 L252.90,278.80 L253.56,278.28 L254.22,277.76 L254.88,277.23 L255.54,276.69 L256.20,276.14 L256.86,275.59 L257.52,275.03 L258.18,274.46 L258.84,273.88 L259.50,273.29 L260.16,272.70 L260.82,272.10 L261.48,271.49 L262.14,270.87 L262.80,270.24 L263.46,269.61 L264.12,268.97 L264.78,268.32 L265.44,267.66 L266.10,267.00 L266.76,266.33 L267.42,265.65 L268.08,264.96 L268.74,264.26 L269.40,263.56 L270.06,262.84 L270.72,262.12 L271.38,261.40 L272.04,260.66 L272.70,259.92 L273.36,259.17 L274.02,258.41 L274.68,257.64 L275.34,256.87 L276.00,256.08 L276.66,255.29 L277.32,254.49 L277.98,253.69 L278.64,252.87 L279.30,252.05 L279.96,251.22 L280.62,250.38 L281.28,249.54 L281.94,248.68 L282.60,247.82 L283.26,246.95 L283.92,246.08 L284.58,245.19 L285.24,244.30 L285.90,243.40 L286.56,242.49 L287.22,241.57 L287.88,240.65 L288.54,239.72 L289.20,238.78 L289.86,237.83 L290.52,236.87 L291.18,235.91 L291.84,234.94 L292.50,233.96 L293.16,232.97 L293.82,231.98 L294.48,230.97 L295.14,229.96 L295.80,228.94 L296.46,227.92 L297.12,226.88 L297.78,225.84 L298.44,224.79 L299.10,223.73 L299.76,222.67 L300.42,221.59 L301.08,220.51 L301.74,219.42 L302.40,218.32 L303.06,217.22 L303.72,216.10 L304.38,214.98 L305.04,213.86 L305.70,212.72 L306.36,211.57 L307.02,210.42 L307.68,209.26 L308.34,208.09 L309.00,206.92 L309.66,205.73 L310.32,204.54 L310.98,203.34 L311.64,202.13 L312.30,200.92 L312.96,199.70 L313.62,198.46 L314.28,197.22 L314.94,195.98 L315.60,194.72 L316.26,193.46 L316.92,192.19 L317.58,190.91 L318.24,189.63 L318.90,188.33 L319.56,187.03 L320.22,185.72 L320.88,184.40 L321.54,183.08 L322.20,181.74 L322.86,180.40 L323.52,179.05 L324.18,177.70 L324.84,176.33 L325.50,174.96 L326.16,173.58 L326.82,172.19 L327.48,170.79 L328.14,169.39 L328.80,167.98 L329.46,166.56 L330.12,165.13 L330.78,163.69 L331.44,162.25 L332.10,160.80 L332.76,159.34 L333.42,157.87 L334.08,156.40 L334.74,154.91 L335.40,153.42 L336.06,151.92 L336.72,150.42 L337.38,148.90 L338.04,147.38 L338.70,145.85 L339.36,144.31 L340.02,142.77 L340.68,141.21 L341.34,139.65 L342.00,138.08 L342.66,136.51 L343.32,134.92 L343.98,133.33 L344.64,131.73 L345.30,130.12 L345.96,128.50 L346.62,126.88 L347.28,125.24 L347.94,123.60 L348.60,121.96 L349.26,120.30 L349.92,118.64 L350.58,116.97 L351.24,115.29 L351.90,113.60 L352.56,111.90 L353.22,110.20 L353.88,108.49 L354.54,106.77 L355.20,105.04 L355.86,103.31 L356.52,101.57 L357.18,99.82 L357.84,98.06 L358.50,96.29 L359.16,94.52 L359.82,92.74 L360.48,90.95 L361.14,89.15 L361.80,87.34 L362.46,85.53 L363.12,83.71 L363.78,81.88 L364.44,80.04 L365.10,78.20 L365.76,76.35 L366.42,74.49 L367.08,72.62 L367.74,70.74 L368.40,68.86 L369.06,66.96 L369.72,65.06 L370.38,63.16 L371.04,61.24 L371.70,59.32 L372.36,57.39 L373.02,55.45 L373.68,53.50 L374.34,51.55 L375.00,49.58" fill="none" stroke="#2196F3" stroke-width="2" stroke-linecap="round" stroke-linejoin="round"/>
  </g>
  <line x1="45.00" y1="330.0" x2="65.00" y2="330.0" stroke="#2196F3" stroke-width="3" stroke-linecap="round"/>
  <text x="71.00" y="330.0" class="legend-text" dominant-baseline="middle">x²</text>
</svg>
