<?xml version="1.0" encoding="UTF-8"?>
<svg xmlns="http://www.w3.org/2000/svg" width="400" height="320" viewBox="0 0 400 320">
  <defs>
    <linearGradient id="activityBg" x1="0%" y1="0%" x2="100%" y2="100%">
      <stop offset="0%" style="stop-color:#E1F5FE"/>
      <stop offset="50%" style="stop-color:#F3E5F5"/>
      <stop offset="100%" style="stop-color:#FFF8E1"/>
    </linearGradient>
    <linearGradient id="slimeGreen" x1="0%" y1="0%" x2="100%" y2="100%">
      <stop offset="0%" style="stop-color:#69F0AE"/>
      <stop offset="50%" style="stop-color:#00E676"/>
      <stop offset="100%" style="stop-color:#00C853"/>
    </linearGradient>
    <linearGradient id="slimePurple" x1="0%" y1="0%" x2="100%" y2="100%">
      <stop offset="0%" style="stop-color:#EA80FC"/>
      <stop offset="50%" style="stop-color:#E040FB"/>
      <stop offset="100%" style="stop-color:#AA00FF"/>
    </linearGradient>
    <linearGradient id="tieDye1" x1="0%" y1="0%" x2="100%" y2="100%">
      <stop offset="0%" style="stop-color:#FF5252"/>
      <stop offset="25%" style="stop-color:#FF9800"/>
      <stop offset="50%" style="stop-color:#FFEB3B"/>
      <stop offset="75%" style="stop-color:#4CAF50"/>
      <stop offset="100%" style="stop-color:#2196F3"/>
    </linearGradient>
    <linearGradient id="crystal" x1="0%" y1="0%" x2="100%" y2="100%">
      <stop offset="0%" style="stop-color:#E1BEE7"/>
      <stop offset="30%" style="stop-color:#CE93D8"/>
      <stop offset="60%" style="stop-color:#AB47BC"/>
      <stop offset="100%" style="stop-color:#7B1FA2"/>
    </linearGradient>
    <linearGradient id="crystalShine" x1="0%" y1="0%" x2="100%" y2="0%">
      <stop offset="0%" style="stop-color:rgba(255,255,255,0.8)"/>
      <stop offset="50%" style="stop-color:rgba(255,255,255,0.2)"/>
      <stop offset="100%" style="stop-color:rgba(255,255,255,0)"/>
    </linearGradient>
    <filter id="actShadow" x="-20%" y="-20%" width="140%" height="140%">
      <feDropShadow dx="2" dy="3" stdDeviation="3" flood-opacity="0.2"/>
    </filter>
    <filter id="gooey">
      <feGaussianBlur in="SourceGraphic" stdDeviation="3" result="blur"/>
      <feColorMatrix in="blur" mode="matrix" values="1 0 0 0 0  0 1 0 0 0  0 0 1 0 0  0 0 0 19 -9"/>
    </filter>
    <filter id="crystalGlow">
      <feGaussianBlur stdDeviation="3" result="blur"/>
      <feMerge>
        <feMergeNode in="blur"/>
        <feMergeNode in="SourceGraphic"/>
      </feMerge>
    </filter>
  </defs>
  
  <style>
    .title { font-family: 'Lilita One', 'Arial Black', sans-serif; font-size: 24px; }
    .subtitle { font-family: 'Noto Sans TC', sans-serif; font-size: 14px; fill: #7B1FA2; }
    .item { font-family: 'Nunito', sans-serif; font-weight: 700; font-size: 10px; fill: #4A148C; }
    .item-zh { font-family: 'Noto Sans TC', sans-serif; font-size: 9px; fill: #6A1B9A; }
  </style>
  
  <!-- Background -->
  <rect width="400" height="320" fill="url(#activityBg)" rx="16"/>
  
  <!-- Decorative bubbles -->
  <g opacity="0.2">
    <circle cx="380" cy="30" r="20" fill="#69F0AE"/>
    <circle cx="360" cy="60" r="12" fill="#EA80FC"/>
    <circle cx="40" cy="280" r="25" fill="#FFEB3B"/>
    <circle cx="20" cy="50" r="15" fill="#2196F3"/>
  </g>
  
  <!-- DIY Slime Kit -->
  <g filter="url(#actShadow)" transform="translate(25, 45)">
    <!-- Slime container -->
    <rect x="10" y="30" width="90" height="70" rx="8" fill="#ECEFF1" stroke="#B0BEC5" stroke-width="2"/>
    <!-- Green slime blob -->
    <g>
      <ellipse cx="35" cy="45" rx="25" ry="15" fill="url(#slimeGreen)"/>
      <ellipse cx="35" cy="55" rx="30" ry="20" fill="url(#slimeGreen)"/>
      <path d="M10,55 Q5,70 15,85 Q25,90 35,85 Q45,75 40,60" fill="url(#slimeGreen)"/>
      <!-- Slime drip -->
      <path d="M20,85 Q18,95 22,105 Q25,108 28,105 Q30,95 25,85" fill="url(#slimeGreen)"/>
      <!-- Shine -->
      <ellipse cx="28" cy="50" rx="8" ry="5" fill="rgba(255,255,255,0.5)"/>
    </g>
    <!-- Purple slime blob -->
    <g>
      <ellipse cx="75" cy="50" rx="20" ry="12" fill="url(#slimePurple)"/>
      <ellipse cx="75" cy="60" rx="25" ry="18" fill="url(#slimePurple)"/>
      <path d="M60,65 Q55,80 65,90 Q75,95 85,88 Q92,78 88,65" fill="url(#slimePurple)"/>
      <!-- Slime drip -->
      <path d="M85,90 Q88,100 84,110" stroke="url(#slimePurple)" stroke-width="8" stroke-linecap="round" fill="none"/>
      <!-- Shine -->
      <ellipse cx="68" cy="52" rx="6" ry="4" fill="rgba(255,255,255,0.5)"/>
    </g>
    <!-- Glitter bits -->
    <g fill="#FFD54F" opacity="0.8">
      <polygon points="45,70 46,72 48,72 46.5,73.5 47,75 45,74 43,75 43.5,73.5 42,72 44,72"/>
      <polygon points="65,75 66,77 68,77 66.5,78.5 67,80 65,79 63,80 63.5,78.5 62,77 64,77"/>
    </g>
    <!-- Label -->
    <rect x="25" y="105" width="60" height="18" rx="3" fill="#00E676"/>
    <text x="55" y="118" font-family="sans-serif" font-size="9" fill="white" text-anchor="middle" font-weight="bold">DIY SLIME</text>
  </g>
  
  <!-- Tie-Dye Set -->
  <g filter="url(#actShadow)" transform="translate(140, 50)">
    <!-- T-shirt shape -->
    <path d="M50,20 L30,25 L20,45 L30,50 L35,35 L35,100 L65,100 L65,35 L70,50 L80,45 L70,25 L50,20 Z" 
          fill="white" stroke="#E0E0E0" stroke-width="2"/>
    <!-- Spiral tie-dye pattern -->
    <clipPath id="shirtClip">
      <path d="M50,20 L30,25 L20,45 L30,50 L35,35 L35,100 L65,100 L65,35 L70,50 L80,45 L70,25 L50,20 Z"/>
    </clipPath>
    <g clip-path="url(#shirtClip)">
      <circle cx="50" cy="60" r="50" fill="none" stroke="#FF5252" stroke-width="8"/>
      <circle cx="50" cy="60" r="40" fill="none" stroke="#FF9800" stroke-width="8"/>
      <circle cx="50" cy="60" r="30" fill="none" stroke="#FFEB3B" stroke-width="8"/>
      <circle cx="50" cy="60" r="20" fill="none" stroke="#4CAF50" stroke-width="8"/>
      <circle cx="50" cy="60" r="10" fill="none" stroke="#2196F3" stroke-width="8"/>
      <circle cx="50" cy="60" r="3" fill="#9C27B0"/>
    </g>
    <!-- Dye bottles -->
    <g transform="translate(-15, 90)">
      <rect x="20" y="0" width="12" height="25" rx="2" fill="#FF5252"/>
      <rect x="35" y="0" width="12" height="25" rx="2" fill="#FFEB3B"/>
      <rect x="50" y="0" width="12" height="25" rx="2" fill="#2196F3"/>
      <rect x="65" y="0" width="12" height="25" rx="2" fill="#9C27B0"/>
      <!-- Bottle caps -->
      <rect x="22" y="-5" width="8" height="6" rx="1" fill="#424242"/>
      <rect x="37" y="-5" width="8" height="6" rx="1" fill="#424242"/>
      <rect x="52" y="-5" width="8" height="6" rx="1" fill="#424242"/>
      <rect x="67" y="-5" width="8" height="6" rx="1" fill="#424242"/>
    </g>
  </g>
  
  <!-- Grow Crystal Kit -->
  <g filter="url(#actShadow)" transform="translate(270, 45)">
    <!-- Glass container/jar -->
    <ellipse cx="55" cy="120" rx="45" ry="10" fill="#B0BEC5" opacity="0.5"/>
    <rect x="15" y="50" width="80" height="70" rx="4" fill="#E3F2FD" fill-opacity="0.6" stroke="#90CAF9" stroke-width="2"/>
    <ellipse cx="55" cy="50" rx="40" ry="8" fill="#E3F2FD" stroke="#90CAF9" stroke-width="2"/>
    
    <!-- Crystal formations -->
    <g filter="url(#crystalGlow)">
      <!-- Main crystal -->
      <polygon points="55,30 45,70 55,65 65,70" fill="url(#crystal)"/>
      <polygon points="55,30 55,65 65,70" fill="url(#crystalShine)"/>
      
      <!-- Left crystal -->
      <polygon points="35,50 28,85 35,80 42,85" fill="url(#crystal)" transform="rotate(-15 35 70)"/>
      <polygon points="35,50 35,80 42,85" fill="url(#crystalShine)" transform="rotate(-15 35 70)"/>
      
      <!-- Right crystal -->
      <polygon points="75,55 68,88 75,83 82,88" fill="url(#crystal)" transform="rotate(12 75 72)"/>
      <polygon points="75,55 75,83 82,88" fill="url(#crystalShine)" transform="rotate(12 75 72)"/>
      
      <!-- Small crystals -->
      <polygon points="25,75 22,95 25,92 28,95" fill="url(#crystal)" transform="rotate(-8 25 85)"/>
      <polygon points="85,70 82,92 85,88 88,92" fill="url(#crystal)" transform="rotate(10 85 82)"/>
    </g>
    
    <!-- Sparkles -->
    <g fill="#E1BEE7" opacity="0.8">
      <polygon points="50,25 51,28 54,28 51.5,30 52.5,33 50,31 47.5,33 48.5,30 46,28 49,28"/>
      <polygon points="80,45 81,47 83,47 81.5,48.5 82,50 80,49 78,50 78.5,48.5 77,47 79,47" transform="scale(0.8)"/>
      <polygon points="30,40 31,42 33,42 31.5,43.5 32,45 30,44 28,45 28.5,43.5 27,42 29,42" transform="scale(0.7)"/>
    </g>
    
    <!-- Label -->
    <rect x="20" y="105" width="70" height="16" rx="3" fill="#9C27B0"/>
    <text x="55" y="117" font-family="sans-serif" font-size="8" fill="white" text-anchor="middle" font-weight="bold">GROW CRYSTAL</text>
  </g>
  
  <!-- Title -->
  <g transform="translate(200, 215)">
    <text x="0" y="0" class="title" fill="#7B1FA2" text-anchor="middle">🧪 Activity Kits</text>
    <text x="0" y="24" class="subtitle" text-anchor="middle">活動套組</text>
  </g>
  
  <!-- Items list -->
  <g transform="translate(30, 258)">
    <circle cx="0" cy="0" r="4" fill="#00E676"/>
    <text x="10" y="3" class="item">DIY slime kits</text>
    <text x="10" y="15" class="item-zh">DIY 史萊姆套組</text>
  </g>
  
  <g transform="translate(150, 258)">
    <circle cx="0" cy="0" r="4" fill="#FF9800"/>
    <text x="10" y="3" class="item">Tie-dye sets</text>
    <text x="10" y="15" class="item-zh">紮染套組</text>
  </g>
  
  <g transform="translate(275, 258)">
    <circle cx="0" cy="0" r="4" fill="#AB47BC"/>
    <text x="10" y="3" class="item">Crystal labs</text>
    <text x="10" y="15" class="item-zh">自己種水晶實驗組</text>
  </g>
  
  <!-- Fun elements -->
  <g opacity="0.5">
    <text x="10" y="170" font-size="12">🔬</text>
    <text x="385" y="120" font-size="10">✨</text>
    <text x="195" y="180" font-size="8">🌈</text>
  </g>
</svg>



